<svg width="320" height="320" viewBox="0 0 320 320" fill="none" xmlns="http://www.w3.org/2000/svg">
  <defs>
    <linearGradient id="goldGradient" x1="0" y1="0" x2="1" y2="1">
      <stop offset="0%" stop-color="#F5D58D" />
      <stop offset="50%" stop-color="#D6A85C" />
      <stop offset="100%" stop-color="#B27B32" />
    </linearGradient>
  </defs>
  <rect width="320" height="320" rx="36" fill="#070707" />
  <circle cx="160" cy="140" r="116" stroke="url(#goldGradient)" stroke-width="8" fill="none" />
  <g stroke="url(#goldGradient)" stroke-width="11" stroke-linecap="round">
    <path d="M80 96 C60 134 60 184 92 218" fill="none" />
    <path d="M240 96 C260 134 260 184 228 218" fill="none" />
  </g>
  <g fill="url(#goldGradient)">
    <path d="M182 95c-6-16.5-18-27.5-33-28.5-18-1.2-36 12.4-43.5 33.5l-2.5 6c18-5 31 4 34 18-9 3-14 10-13 17.5 1.5 9.5 13 15.5 26 12.5 9 13 23 22 39 22.5 12.5.5 21.5-5 27-15.5-14-6-20-19.5-17-34 2.5-12 0-22-6-32.5z"/>
    <path d="M211 193c8.5 0 15.5 6 15.5 13.5v51c0 7.5-7 13.5-15.5 13.5h-102c-8.5 0-15.5-6-15.5-13.5v-51c0-7.5 7-13.5 15.5-13.5H211z" opacity=".35"/>
  </g>
  <g transform="translate(232 92)">
    <rect x="17" y="0" width="26" height="110" rx="12" stroke="url(#goldGradient)" stroke-width="6" fill="#121212" />
    <path d="M22 16h18l-18 18h18l-18 18h18l-18 18h18l-18 18" stroke="url(#goldGradient)" stroke-width="5" />
  </g>
  <rect x="44" y="228" width="232" height="48" rx="24" fill="#121212" stroke="url(#goldGradient)" stroke-width="4" />
  <text x="160" y="258" text-anchor="middle" font-family="'Bebas Neue', sans-serif" font-size="40" letter-spacing="6" fill="url(#goldGradient)">BARBERIA</text>
  <text x="160" y="284" text-anchor="middle" font-family="'Playfair Display', serif" font-size="20" letter-spacing="3" fill="url(#goldGradient)">SUNSETZ</text>
</svg>
